<?xml version="1.0" encoding="UTF-8"?>
<svg xmlns="http://www.w3.org/2000/svg" xmlns:xlink="http://www.w3.org/1999/xlink" width="24px" height="24px" viewBox="0 0 24 24" version="1.1">
<g id="surface1">
<path style=" stroke:none;fill-rule:nonzero;fill:rgb(50.196081%,50.196081%,50.196081%);fill-opacity:1;" d="M 24 12 C 24 18.628906 18.628906 24 12 24 C 5.371094 24 0 18.628906 0 12 C 0 5.371094 5.371094 0 12 0 C 18.628906 0 24 5.371094 24 12 Z M 24 12 "/>
<path style=" stroke:none;fill-rule:nonzero;fill:rgb(100%,100%,100%);fill-opacity:1;" d="M 21.550781 12 C 21.550781 17.273438 17.273438 21.550781 12 21.550781 C 6.726562 21.550781 2.449219 17.273438 2.449219 12 C 2.449219 6.726562 6.726562 2.449219 12 2.449219 C 17.273438 2.449219 21.550781 6.726562 21.550781 12 Z M 21.550781 12 "/>
<path style=" stroke:none;fill-rule:nonzero;fill:rgb(50.196081%,50.196081%,50.196081%);fill-opacity:1;" d="M 18.734375 12 C 18.734375 15.71875 15.71875 18.734375 12 18.734375 C 8.28125 18.734375 5.265625 15.71875 5.265625 12 C 5.265625 8.28125 8.28125 5.265625 12 5.265625 C 15.71875 5.265625 18.734375 8.28125 18.734375 12 Z M 18.734375 12 "/>
<path style=" stroke:none;fill-rule:nonzero;fill:rgb(100%,100%,100%);fill-opacity:1;" d="M 15.671875 12 C 15.671875 14.027344 14.027344 15.671875 12 15.671875 C 9.972656 15.671875 8.328125 14.027344 8.328125 12 C 8.328125 9.972656 9.972656 8.328125 12 8.328125 C 14.027344 8.328125 15.671875 9.972656 15.671875 12 Z M 15.671875 12 "/>
<path style=" stroke:none;fill-rule:nonzero;fill:rgb(100%,100%,100%);fill-opacity:1;" d="M 15.0625 10.40625 L 18.855469 10.40625 L 18.855469 13.46875 L 15.0625 13.46875 Z M 15.0625 10.40625 "/>
<path style=" stroke:none;fill-rule:nonzero;fill:rgb(100%,100%,100%);fill-opacity:1;" d="M 16.867188 4.621094 L 19.378906 7.132812 L 7.132812 19.378906 L 4.621094 16.867188 Z M 16.867188 4.621094 "/>
<path style=" stroke:none;fill-rule:nonzero;fill:rgb(50.196081%,50.196081%,50.196081%);fill-opacity:1;" d="M 18.277344 3.582031 L 20.417969 5.722656 L 5.722656 20.417969 L 3.582031 18.277344 Z M 18.277344 3.582031 "/>
</g>
</svg>
